<svg xmlns="http://www.w3.org/2000/svg" xmlns:xlink="http://www.w3.org/1999/xlink" width="1080" zoomAndPan="magnify" viewBox="0 0 810 809.999993" height="1080" preserveAspectRatio="xMidYMid meet" version="1.0"><defs><clipPath id="9c7499c22f"><path d="M 0 89.101562 L 810 89.101562 L 810 720.601562 L 0 720.601562 Z M 0 89.101562 " clip-rule="nonzero"/></clipPath></defs><g clip-path="url(#9c7499c22f)"><path fill="#1d1d1d" d="M 730.925781 199.226562 L 605.292969 199.226562 C 604.632812 196.925781 603.320312 194.625 602.332031 192.652344 C 593.78125 176.871094 587.203125 159.777344 582.929688 142.355469 C 578.980469 126.574219 575.691406 108.496094 562.867188 98.632812 C 552.339844 90.742188 537.871094 90.414062 524.714844 90.414062 C 480.316406 90.414062 435.914062 90.414062 391.1875 90.414062 C 355.996094 90.414062 320.476562 90.414062 285.285156 90.414062 C 278.050781 90.414062 268.839844 89.101562 261.933594 90.742188 C 256.015625 92.386719 250.421875 96.660156 246.148438 100.933594 C 236.9375 109.808594 231.019531 121.972656 227.070312 133.808594 C 220.824219 152.875 217.863281 173.585938 207.996094 191.007812 C 206.679688 193.636719 205.035156 196.269531 204.050781 198.898438 L 78.742188 198.898438 C 35.332031 198.898438 0.46875 234.070312 0.46875 277.136719 L 0.46875 642.359375 C 0.46875 685.753906 35.660156 720.601562 78.742188 720.601562 L 731.257812 720.601562 C 774.667969 720.601562 809.53125 685.425781 809.53125 642.359375 L 809.53125 277.792969 C 809.203125 234.402344 774.011719 199.226562 730.925781 199.226562 Z M 404.671875 662.085938 C 293.179688 662.085938 202.734375 571.683594 202.734375 460.242188 C 202.734375 348.800781 293.179688 258.398438 404.671875 258.398438 C 516.164062 258.398438 606.609375 348.800781 606.609375 460.242188 C 606.609375 571.683594 516.164062 662.085938 404.671875 662.085938 Z M 714.15625 323.488281 C 698.695312 323.488281 686.199219 310.996094 686.199219 295.546875 C 686.199219 280.09375 698.695312 267.601562 714.15625 267.601562 C 729.613281 267.601562 742.109375 280.09375 742.109375 295.546875 C 742.109375 310.996094 729.613281 323.488281 714.15625 323.488281 Z M 714.15625 323.488281 " fill-opacity="1" fill-rule="nonzero"/></g><path fill="#1d1d1d" d="M 527.347656 460.242188 C 527.347656 462.25 527.296875 464.253906 527.199219 466.257812 C 527.101562 468.261719 526.953125 470.261719 526.753906 472.261719 C 526.558594 474.257812 526.3125 476.25 526.019531 478.234375 C 525.722656 480.21875 525.378906 482.195312 524.988281 484.164062 C 524.597656 486.132812 524.15625 488.089844 523.667969 490.035156 C 523.183594 491.980469 522.644531 493.914062 522.0625 495.835938 C 521.480469 497.757812 520.851562 499.660156 520.175781 501.550781 C 519.5 503.441406 518.777344 505.3125 518.007812 507.164062 C 517.238281 509.019531 516.425781 510.855469 515.566406 512.667969 C 514.710938 514.480469 513.808594 516.273438 512.859375 518.042969 C 511.914062 519.8125 510.925781 521.558594 509.894531 523.28125 C 508.859375 525 507.789062 526.695312 506.671875 528.363281 C 505.554688 530.035156 504.402344 531.671875 503.203125 533.285156 C 502.007812 534.898438 500.773438 536.480469 499.5 538.03125 C 498.226562 539.582031 496.914062 541.101562 495.566406 542.585938 C 494.21875 544.074219 492.835938 545.527344 491.414062 546.945312 C 489.996094 548.363281 488.542969 549.75 487.054688 551.097656 C 485.566406 552.445312 484.046875 553.753906 482.496094 555.027344 C 480.945312 556.300781 479.359375 557.535156 477.75 558.730469 C 476.136719 559.925781 474.496094 561.082031 472.824219 562.195312 C 471.15625 563.308594 469.460938 564.382812 467.738281 565.414062 C 466.015625 566.445312 464.269531 567.433594 462.5 568.382812 C 460.730469 569.328125 458.9375 570.230469 457.121094 571.085938 C 455.304688 571.945312 453.472656 572.757812 451.617188 573.527344 C 449.761719 574.292969 447.890625 575.015625 446 575.691406 C 444.109375 576.367188 442.203125 576.996094 440.28125 577.578125 C 438.359375 578.164062 436.425781 578.699219 434.480469 579.183594 C 432.53125 579.671875 430.574219 580.113281 428.605469 580.503906 C 426.632812 580.894531 424.65625 581.238281 422.671875 581.53125 C 420.683594 581.828125 418.691406 582.074219 416.695312 582.269531 C 414.699219 582.464844 412.695312 582.613281 410.691406 582.710938 C 408.683594 582.8125 406.679688 582.859375 404.671875 582.859375 C 402.664062 582.859375 400.65625 582.8125 398.652344 582.710938 C 396.648438 582.613281 394.644531 582.464844 392.648438 582.269531 C 390.648438 582.074219 388.65625 581.828125 386.671875 581.53125 C 384.683594 581.238281 382.707031 580.894531 380.738281 580.503906 C 378.769531 580.113281 376.8125 579.671875 374.863281 579.183594 C 372.914062 578.699219 370.980469 578.164062 369.058594 577.578125 C 367.140625 576.996094 365.234375 576.367188 363.34375 575.691406 C 361.453125 575.015625 359.582031 574.292969 357.726562 573.527344 C 355.871094 572.757812 354.035156 571.945312 352.21875 571.085938 C 350.40625 570.230469 348.613281 569.328125 346.84375 568.382812 C 345.070312 567.433594 343.324219 566.445312 341.601562 565.414062 C 339.882812 564.382812 338.1875 563.308594 336.515625 562.195312 C 334.847656 561.078125 333.207031 559.925781 331.59375 558.730469 C 329.980469 557.535156 328.398438 556.300781 326.847656 555.027344 C 325.292969 553.753906 323.773438 552.445312 322.289062 551.097656 C 320.800781 549.75 319.347656 548.363281 317.925781 546.945312 C 316.507812 545.527344 315.125 544.074219 313.773438 542.585938 C 312.425781 541.101562 311.117188 539.582031 309.84375 538.03125 C 308.570312 536.480469 307.332031 534.898438 306.136719 533.285156 C 304.941406 531.671875 303.785156 530.035156 302.671875 528.363281 C 301.554688 526.695312 300.480469 525 299.449219 523.28125 C 298.417969 521.558594 297.429688 519.8125 296.480469 518.042969 C 295.535156 516.273438 294.632812 514.480469 293.773438 512.667969 C 292.914062 510.855469 292.101562 509.019531 291.335938 507.164062 C 290.566406 505.3125 289.84375 503.441406 289.167969 501.550781 C 288.492188 499.660156 287.859375 497.757812 287.277344 495.835938 C 286.695312 493.914062 286.160156 491.980469 285.671875 490.035156 C 285.183594 488.089844 284.746094 486.132812 284.351562 484.164062 C 283.960938 482.195312 283.617188 480.21875 283.324219 478.234375 C 283.027344 476.25 282.785156 474.257812 282.585938 472.261719 C 282.390625 470.261719 282.242188 468.261719 282.144531 466.257812 C 282.046875 464.253906 281.996094 462.25 281.996094 460.242188 C 281.996094 458.234375 282.046875 456.230469 282.144531 454.226562 C 282.242188 452.222656 282.390625 450.21875 282.585938 448.222656 C 282.785156 446.226562 283.027344 444.234375 283.324219 442.25 C 283.617188 440.265625 283.960938 438.289062 284.351562 436.320312 C 284.746094 434.351562 285.183594 432.394531 285.671875 430.449219 C 286.160156 428.5 286.695312 426.566406 287.277344 424.648438 C 287.859375 422.726562 288.492188 420.824219 289.167969 418.933594 C 289.84375 417.042969 290.566406 415.171875 291.335938 413.316406 C 292.101562 411.464844 292.914062 409.628906 293.773438 407.816406 C 294.632812 406 295.535156 404.210938 296.480469 402.441406 C 297.425781 400.671875 298.417969 398.925781 299.449219 397.203125 C 300.480469 395.480469 301.554688 393.789062 302.671875 392.117188 C 303.785156 390.449219 304.941406 388.808594 306.136719 387.199219 C 307.332031 385.585938 308.570312 384.003906 309.84375 382.453125 C 311.117188 380.902344 312.425781 379.382812 313.773438 377.894531 C 315.125 376.410156 316.507812 374.957031 317.925781 373.539062 C 319.347656 372.117188 320.800781 370.734375 322.289062 369.386719 C 323.773438 368.039062 325.292969 366.730469 326.847656 365.457031 C 328.398438 364.183594 329.980469 362.949219 331.59375 361.753906 C 333.207031 360.558594 334.847656 359.402344 336.515625 358.289062 C 338.1875 357.171875 339.882812 356.101562 341.601562 355.070312 C 343.324219 354.035156 345.070312 353.046875 346.84375 352.101562 C 348.613281 351.15625 350.40625 350.253906 352.222656 349.394531 C 354.035156 348.539062 355.871094 347.726562 357.726562 346.957031 C 359.582031 346.1875 361.453125 345.46875 363.34375 344.792969 C 365.234375 344.117188 367.140625 343.484375 369.058594 342.902344 C 370.980469 342.320312 372.914062 341.785156 374.863281 341.296875 C 376.8125 340.8125 378.769531 340.371094 380.738281 339.980469 C 382.707031 339.589844 384.683594 339.246094 386.671875 338.949219 C 388.65625 338.65625 390.648438 338.410156 392.648438 338.214844 C 394.644531 338.015625 396.648438 337.871094 398.652344 337.769531 C 400.65625 337.671875 402.664062 337.625 404.671875 337.625 C 406.679688 337.625 408.683594 337.671875 410.691406 337.769531 C 412.695312 337.871094 414.699219 338.015625 416.695312 338.214844 C 418.691406 338.410156 420.683594 338.65625 422.671875 338.949219 C 424.65625 339.246094 426.632812 339.589844 428.605469 339.980469 C 430.574219 340.371094 432.53125 340.8125 434.480469 341.296875 C 436.425781 341.785156 438.359375 342.320312 440.28125 342.902344 C 442.203125 343.484375 444.109375 344.117188 446 344.792969 C 447.890625 345.46875 449.761719 346.1875 451.617188 346.957031 C 453.472656 347.726562 455.304688 348.539062 457.121094 349.394531 C 458.9375 350.253906 460.730469 351.15625 462.5 352.101562 C 464.269531 353.046875 466.015625 354.035156 467.738281 355.070312 C 469.460938 356.101562 471.15625 357.171875 472.824219 358.289062 C 474.496094 359.402344 476.136719 360.558594 477.75 361.753906 C 479.359375 362.949219 480.945312 364.183594 482.496094 365.457031 C 484.046875 366.730469 485.566406 368.039062 487.054688 369.386719 C 488.542969 370.734375 489.996094 372.117188 491.414062 373.539062 C 492.835938 374.957031 494.21875 376.410156 495.566406 377.898438 C 496.914062 379.382812 498.226562 380.902344 499.5 382.453125 C 500.773438 384.003906 502.007812 385.585938 503.203125 387.199219 C 504.402344 388.808594 505.554688 390.449219 506.671875 392.117188 C 507.785156 393.789062 508.859375 395.480469 509.894531 397.203125 C 510.925781 398.925781 511.914062 400.671875 512.859375 402.441406 C 513.808594 404.210938 514.710938 406 515.566406 407.816406 C 516.425781 409.628906 517.238281 411.464844 518.007812 413.316406 C 518.777344 415.171875 519.5 417.042969 520.175781 418.933594 C 520.851562 420.824219 521.480469 422.726562 522.0625 424.648438 C 522.644531 426.566406 523.183594 428.5 523.667969 430.449219 C 524.15625 432.394531 524.597656 434.351562 524.988281 436.320312 C 525.378906 438.289062 525.722656 440.265625 526.019531 442.25 C 526.3125 444.234375 526.558594 446.226562 526.753906 448.222656 C 526.953125 450.21875 527.101562 452.222656 527.199219 454.226562 C 527.296875 456.230469 527.347656 458.234375 527.347656 460.242188 Z M 527.347656 460.242188 " fill-opacity="1" fill-rule="nonzero"/></svg>